<svg fill="none" height="143" viewBox="0 0 127 143" width="127" xmlns="http://www.w3.org/2000/svg" xmlns:xlink="http://www.w3.org/1999/xlink"><clipPath id="a"><path d="m.054199.543213h126.017v141.769h-126.017z"/></clipPath><g clip-path="url(#a)" fill="#000"><path d="m125.572 75.5233c-.145-3.2128-1.099-6.417-2.022-9.517l-.112-.3766c-.447-1.5133-1.234-2.9043-2.301-4.0665-1.068-1.1622-2.387-2.0648-3.857-2.6387-4.556-1.9171-8.833-1.2956-12.721 1.8456-1.793-4.0922-4.722-6.7085-8.7125-7.7783-4.6777-1.2536-8.4786-.2546-11.3054 2.972-4.7946-6.5831-8.3395-7.2736-15.9188-3.0848-.0841-1.2532-.1648-2.5003-.2409-3.7412-.1969-3.1078-.3938-6.3218-.7075-9.4604-.6183-6.2353-1.3226-12.9299-2.2793-19.7125-.5533-3.6251-2.0078-7.0536-4.2296-9.97108-2.6253-3.55734-6.2521-4.3397-10.221-2.20464-1.1919.61709-2.2406 1.47794-3.0782 2.52672-.8375 1.0488-1.4453 2.262-1.7834 3.5608-.5069 1.7486-.8167 3.5482-.924 5.3656-.0551 1.184-.1121 2.3678-.1708 3.5514-.2862 5.8933-.5827 11.9868-.5775 17.9837.0053 7.2906.174 14.4348.3526 21.9991.0695 2.9365.135 5.8966.1967 8.8797-.0479-.0434-.0944-.0854-.1397-.1274-.3479-.3275-.7123-.6366-1.0916-.9267-6.799-4.9883-14.0305-6.7229-21.495-5.1588-1.5427.2955-2.9886.9668-4.2102 1.9539-1.2215.9878-2.181 2.2604-2.7935 3.707-.6208 1.5109-.8599 3.1517-.6961 4.7775.1638 1.6251.7253 3.1852 1.6351 4.5425 1.1614 1.6874 2.5534 3.2049 4.1351 4.5071 5.1842 4.4178 9.4621 9.7997 12.597 15.8467 3.8218 7.416 8.1388 15.227 13.9933 25.312 1.3937 2.215 3.1752 4.162 5.2597 5.746 4.1808 3.291 8.8746 5.873 13.8933 7.642 4.6291 1.741 9.5346 2.632 14.4808 2.631 5.8223-.068 11.5883-1.147 17.0411-3.188 4.0383-1.51 7.7793-3.719 11.0513-6.525 5.927-4.905 10.057-11.609 12.627-20.495 3.423-11.807 4.884-24.097 4.325-36.3777zm-74.4287 4.1428c-.1312-7.8301-.3051-16.0981-.5073-24.5733-.0413-1.7439-.1186-3.5154-.1967-5.2284-.1359-3.138-.2777-6.3829-.2048-9.5642.1569-6.8515.5591-13.8146.9483-20.5486l.1137-1.9638c.1536-2.6798.7554-5.2605 4.064-6.033 2.116 1.3842 3.4261 3.663 4.0037 6.9572.8682 4.9532 1.4791 9.9481 1.8309 14.9645.4549 6.5515.797 13.2232 1.1284 19.6743.169 3.2975.3438 6.5947.525 9.8917.1148 2.0557.9511 3.243 2.5545 3.6309 1.6191.3938 2.9534-.4712 3.9622-2.5676l.4523-.9444c.9352-1.9553 1.9033-3.9775 3.0014-5.8717.6629-1.1433 1.8633-2.4232 3.8396-2.0274.8289.1585 1.5844.5812 2.1527 1.2049.5684.6236.9196 1.4147 1.001 2.2546.3327 2.0754.4975 4.1741.4942 6.2759.0105 2.8735.3846 4.2814 2.479 4.5105 2.0537.2231 2.7651-.9846 3.5757-3.7839.5605-2.1355 1.3429-4.2065 2.3339-6.1794 1.2687-2.3523 2.779-2.8781 5.5743-1.9375 2.7566.928 4.4067 2.7612 4.893 5.4476.2481 1.5745.3945 3.1629.4391 4.7565.0197.4076.042.8145.0656 1.2202.0873 1.5364.44 3.1793 2.396 3.7161 1.955.5369 3.019-.6852 3.872-2.0871.246-.4037.486-.8126.727-1.2221.683-1.2385 1.467-2.418 2.344-3.5272 1.384-1.65 2.972-2.4547 4.469-2.2657s2.835 1.3638 3.766 3.3073c2.363 4.9278 3.221 10.6235 2.555 16.9296-.672 6.3744-1.649 13.1379-3.073 21.2844-1.124 5.935-3.584 11.537-7.194 16.38-3.518 4.879-8.683 8.32-15.7926 10.518-12.9601 4.004-25.0682 1.854-37.0174-6.579-1.2633-.862-2.3666-1.938-3.2605-3.179-1.9835-2.84-3.8104-5.787-5.4722-8.827-2.7146-5.06-5.3719-10.304-7.8975-15.5905-4.0036-8.3722-9.118-14.9645-15.6393-20.1496-1.1053-.8827-2.0364-1.9637-2.7456-3.1878-.1994-.3111-.3299-.6609-.3832-1.0265-.0534-.3656-.0279-.7377.0743-1.0928.1593-.4023.4009-.7666.7092-1.0705.3084-.3032.6767-.5388 1.0814-.6918 1.2858-.5769 2.6801-.8729 4.0895-.8677.7658.0027 1.5296.0788 2.2809.2271 6.1039 1.1729 9.9551 3.4051 12.4919 7.2375.7403 1.2582 1.3072 2.6102 1.6854 4.02.1214.382.2437.7634.3711 1.1388.5001 1.4708 1.2804 2.9758 3.2711 2.9896h.0289c1.6887 0 2.9147-1.0501 3.3656-2.8839.2558-1.0016.3818-2.0321.3753-3.0658z"/><path d="m16.6711 5.9344c.5093-.5907 1.862-2.1659.2881-3.72535-.9753-.96679-2.246-.87427-3.4878.25922-3.9833 3.63677-8.20739 7.52427-12.21499 11.55153-.80401.8073-1.356774 2.924-.787729 3.7562 3.076259 4.4999 6.432069 9.0293 9.982819 13.4622.2458.2919.5537.5254.9009.6835.3473.1582.7254.2369 1.1069.2308h.025c.4078.0016.8104-.0898 1.1774-.2674.3671-.1775.6889-.4365.9406-.7572.3478-.5312.5817-1.1288.6868-1.755.1052-.6262.0795-1.2673-.0756-1.8831-.386-1.0719-.9821-2.0564-1.7527-2.8957-.1542-.1936-.3077-.3859-.4547-.5776-1.0416-1.3573-2.1108-2.6752-3.24228-4.0693-.37805-.4655-.76135-.9386-1.1499-1.419l.15608-.0538c.17163-.0771.35494-.1252.54226-.1424 2.90054.0144 5.80084.0332 8.70094.0564 4.4999.0328 9 .0656 13.4992.0735h.3326c2.474.0562 4.9491-.0394 7.4114-.2861.8269-.0625 1.6019-.4275 2.1766-1.0252.5749-.5978.9091-1.3864.9391-2.2152.0547-.8324-.2193-1.6531-.7631-2.2857-.5438-.6327-1.3141-1.0268-2.1452-1.0977-2.4406-.3186-4.9031-.434-7.3627-.3452-4.9803.1936-10.042.4699-14.9317.7364-1.892.1037-3.784.2057-5.676.3058l-.1714-.2783c.4782-.5368.9577-1.0727 1.4386-1.6073 1.291-1.44529 2.6267-2.93518 3.9105-4.429z"/><path d="m94.4578 10.3189c-1.9309.0564-3.8618.1068-5.7921.151-3.6171.0893-7.3582.1805-11.0364.3327-1.5995.0292-3.1806.3465-4.6678.9366-.8086.3459-1.4112 1.7885-1.3718 2.752.0341.8297 1.3035 1.652 2.0045 1.8798.8079.2105 1.6454.2845 2.4783.2186.2107-.0053.4207-.0099.6275-.0099 3.2908 0 6.5811-.0025 9.8713-.0078 3.556-.0049 7.1134-.0073 10.6701-.0073.525 0 1.0705.0473 1.757.1057.1969.017.4095.0354.6366.0538-.3038.3387-.5907.6564-.869.9655-.8709.9655-1.6237 1.7997-2.3332 2.6739-.1681.2061-.3387.4122-.51.6183-.8953.9818-1.6527 2.0813-2.2506 3.2679-.4109.9248-.3649 2.6378.3085 3.3775.6064.6662 1.8377.7016 2.9233.7331l.3341.0099h.042c.6478-.0739 1.2438-.3913 1.6671-.8881.722-.8029 1.4468-1.6038 2.1748-2.4028 2.691-2.9673 5.476-6.0383 8.04-9.1998 1.456-1.7958 1.292-3.6349-.474-5.3164-3.334-3.17737-6.795-6.27197-10.2856-9.19793-.6996-.586108-2.286-.56511-3.0953-.13652-.7055.37411-.9812 1.94867-.7803 2.73824.3393 1.11421.9247 2.13794 1.713 2.99554.7128.79971 1.4748 1.55417 2.2814 2.25908.2842.26253.5907.53951.915.84409-.529.0288-1.02.0571-1.482.084-1.3455.0761-2.4088.1378-3.4964.1693z"/></g></svg>